# xmcd
# Copyright (C) 1995-1998 Ti Kan
#
# Track frame offsets:
#       150
#       15906
#       32562
#       47044
#       63547
#       80659
#       94937
#       110562
#       127968
#       148449
#       165030
#       180561
#       187617
#
# Disc length: 2794 seconds
#
# Revision: 0
# Processed by: cddbd v1.4PL0 Copyright (c) Steve Scherf et al.
# Submitted via: CD-Transfer v1.0
#
DISCID=a00ae80d
DTITLE=Abbazappa - Bündner Schiiba
DYEAR=2002
DGENRE=
TTITLE0=Du Und I
TTITLE1=Schiiba
TTITLE2=Niko
TTITLE3=Easy
TTITLE4=Ussa
TTITLE5=Mama
TTITLE6=Stell Diar Vor
TTITLE7=Fiirobig
TTITLE8=Salz Uf Dr Hut
TTITLE9=Nümma Do
TTITLE10=Manuela
TTITLE11=Teebütali
TTITLE12=Gail
EXTD=
EXTT0=
EXTT1=
EXTT2=
EXTT3=
EXTT4=
EXTT5=
EXTT6=
EXTT7=
EXTT8=
EXTT9=
EXTT10=
EXTT11=
EXTT12=
PLAYORDER=
